# xmcd CD database file
#
# Track frame offsets:
#	150
#	6322
#	31313
#	60383
#	77480
#	96582
#	109448
#	140262
#	163856
#	192337
#	221055
#	235368
#	267346
#
# Disc length: 3957 seconds
#
# Revision: 0
# Processed by: cddbd v1.5.2PL0 Copyright (c) Steve Scherf et al.
# Submitted via: CDex 1.51
#
DISCID=ba0f730d
DTITLE=Vincent Stephen-Ong/Tom Eliosoff - Winding Path
DYEAR=2008
DGENRE=Jazz
TTITLE0=All Is Not Lost
TTITLE1=The Master and the Way
TTITLE2=Concealed
TTITLE3=Polar Coordinate
TTITLE4=Do What It Takes
TTITLE5=Good Things Come
TTITLE6=Visitor
TTITLE7=Eminence
TTITLE8=Grace
TTITLE9=Winding Path
TTITLE10=Delirium
TTITLE11=Meticulous Mephistopheles
TTITLE12=Folktale
EXTD=YEAR: 2008
EXTT0=
EXTT1=
EXTT2=
EXTT3=
EXTT4=
EXTT5=
EXTT6=
EXTT7=
EXTT8=
EXTT9=
EXTT10=
EXTT11=
EXTT12=
PLAYORDER=
